<svg width="30" height="30" viewBox="0 0 30 30" fill="none" xmlns="http://www.w3.org/2000/svg">
<g clip-path="url(#clip0_158_854)">
<path d="M4.06315 12.5693V19.861" stroke="white" stroke-width="1.38889" stroke-linecap="round" stroke-linejoin="round"/>
<path d="M15.0006 6.49316V10.139" stroke="white" stroke-width="1.38889" stroke-linecap="round" stroke-linejoin="round"/>
<path d="M12.5701 6.49316H17.4312" stroke="white" stroke-width="1.38889" stroke-linecap="round" stroke-linejoin="round"/>
<path d="M6.4937 16.2148H4.06315" stroke="white" stroke-width="1.38889" stroke-linecap="round" stroke-linejoin="round"/>
<path d="M7.70898 12.5692H10.1395L12.5701 10.1387H16.6802C16.9058 10.1388 17.1269 10.2017 17.3188 10.3204C17.5107 10.4391 17.6658 10.6089 17.7666 10.8107L19.5263 14.3277C19.6272 14.5296 19.7823 14.6993 19.9741 14.818C20.166 14.9367 20.3872 14.9997 20.6128 14.9998H22.2923V12.5692H24.7229C25.0452 12.5692 25.3543 12.6973 25.5822 12.9252C25.8101 13.1531 25.9382 13.4622 25.9382 13.7845V21.0762C25.9382 21.3985 25.8101 21.7076 25.5822 21.9355C25.3543 22.1634 25.0452 22.2914 24.7229 22.2914H22.2923V19.8609H18.6465V22.2914C18.6465 22.6138 18.5184 22.9229 18.2905 23.1508C18.0626 23.3787 17.7535 23.5067 17.4312 23.5067H13.2203C13.0202 23.5068 12.8233 23.4574 12.6469 23.3631C12.4705 23.2687 12.3202 23.1323 12.2092 22.9659L10.1395 19.8609H7.70898V12.5692Z" stroke="white" stroke-width="1.38889" stroke-linecap="round" stroke-linejoin="round"/>
</g>
<defs>
<clipPath id="clip0_158_854">
<rect width="29.1667" height="29.1667" fill="white" transform="translate(0.416664 0.416992)"/>
</clipPath>
</defs>
</svg>
