<svg width="45" height="39" viewBox="0 0 45 39" fill="none" xmlns="http://www.w3.org/2000/svg">
<path d="M22.5 15.2891C26.6226 15.2891 29.9766 11.9351 29.9766 7.8125C29.9766 3.68991 26.6226 0.335938 22.5 0.335938C18.3774 0.335938 15.0234 3.68991 15.0234 7.8125C15.0234 11.9351 18.3774 15.2891 22.5 15.2891ZM22.5 2.91406C25.201 2.91406 27.3984 5.11148 27.3984 7.8125C27.3984 10.5135 25.201 12.7109 22.5 12.7109C19.799 12.7109 17.6016 10.5135 17.6016 7.8125C17.6016 5.11148 19.799 2.91406 22.5 2.91406Z" fill="#EB1C22"/>
<path d="M37.625 15.2891C40.2312 15.2891 42.3516 13.1687 42.3516 10.5625C42.3516 7.95627 40.2312 5.83594 37.625 5.83594C35.0188 5.83594 32.8984 7.95627 32.8984 10.5625C32.8984 13.1687 35.0188 15.2891 37.625 15.2891ZM37.625 8.41406C38.8096 8.41406 39.7734 9.37785 39.7734 10.5625C39.7734 11.7471 38.8096 12.7109 37.625 12.7109C36.4404 12.7109 35.4766 11.7471 35.4766 10.5625C35.4766 9.37785 36.4404 8.41406 37.625 8.41406Z" fill="#EB1C22"/>
<path d="M38.6648 18.2109H36.6711C34.3216 18.2109 32.2935 19.599 31.3694 21.5927C29.4666 19.5156 26.7335 18.2109 23.7013 18.2109H21.2988C18.2665 18.2109 15.5335 19.5156 13.6307 21.5927C12.7065 19.599 10.6784 18.2109 8.32891 18.2109H6.33516C3.11766 18.2109 0.5 20.8128 0.5 24.0109V33.3961C0.5 34.7845 1.63386 35.9141 3.02759 35.9141H10.9104C11.0426 37.4523 12.3361 38.6641 13.9081 38.6641H31.0919C32.6639 38.6641 33.9574 37.4523 34.0897 35.9141H41.8824C43.3258 35.9141 44.5001 34.7445 44.5001 33.3067V24.0109C44.5 20.8128 41.8823 18.2109 38.6648 18.2109ZM3.07812 24.0109C3.07812 22.2344 4.53923 20.7891 6.33516 20.7891H8.32891C10.1248 20.7891 11.5859 22.2344 11.5859 24.0109V24.8935C10.7191 27.1506 10.8984 28.5032 10.8984 33.3359H3.07812V24.0109ZM31.5234 35.6544C31.5234 35.8924 31.3299 36.0859 31.0919 36.0859H13.9081C13.6701 36.0859 13.4766 35.8923 13.4766 35.6544V28.6113C13.4766 24.2981 16.9856 20.7891 21.2987 20.7891H23.7012C28.0144 20.7891 31.5234 24.2981 31.5234 28.6112V35.6544ZM41.9219 33.3067C41.9219 33.3511 42.4024 33.3359 34.1016 33.3359C34.1016 28.4675 34.2795 27.1469 33.4141 24.8935V24.0109C33.4141 22.2344 34.8752 20.7891 36.6711 20.7891H38.6648C40.4608 20.7891 41.9219 22.2344 41.9219 24.0109V33.3067Z" fill="#EB1C22"/>
<path d="M7.375 15.2891C9.98123 15.2891 12.1016 13.1687 12.1016 10.5625C12.1016 7.95627 9.98123 5.83594 7.375 5.83594C4.76877 5.83594 2.64844 7.95627 2.64844 10.5625C2.64844 13.1687 4.76877 15.2891 7.375 15.2891ZM7.375 8.41406C8.55965 8.41406 9.52344 9.37785 9.52344 10.5625C9.52344 11.7471 8.55965 12.7109 7.375 12.7109C6.19035 12.7109 5.22656 11.7471 5.22656 10.5625C5.22656 9.37785 6.19035 8.41406 7.375 8.41406Z" fill="#EB1C22"/>
</svg>
