<svg width="45" height="31" viewBox="0 0 45 31" fill="none" xmlns="http://www.w3.org/2000/svg">
<path d="M44.1372 15.4814L36.7423 7.84081C36.4996 7.58988 36.1653 7.44825 35.8161 7.44825H31.0907V1.88672C31.0907 1.17481 30.5135 0.597656 29.8016 0.597656H5.85898C5.14707 0.597656 4.56991 1.17481 4.56991 1.88672V5.75511H3.59418C2.88227 5.75511 2.30512 6.33227 2.30512 7.04417C2.30512 7.75608 2.88227 8.33324 3.59418 8.33324H4.56991V10.9126H1.78906C1.07716 10.9126 0.5 11.4897 0.5 12.2016C0.5 12.9135 1.07716 13.4907 1.78906 13.4907H4.56991V25.3292C4.56991 26.0411 5.14707 26.6182 5.85898 26.6182H8.60287C8.85278 27.4501 9.30593 28.2124 9.9374 28.8439C10.943 29.8496 12.2801 30.4034 13.7023 30.4034C15.1245 30.4034 16.4615 29.8496 17.4672 28.8439C18.1063 28.2048 18.5478 27.4422 18.7934 26.6324H31.1035C31.3492 27.4422 31.7907 28.2048 32.4297 28.8439C33.4354 29.8496 34.7725 30.4034 36.1947 30.4034C37.6168 30.4034 38.9538 29.8496 39.9596 28.8439C40.5986 28.2048 41.0402 27.4422 41.2858 26.6324H43.2109C43.9228 26.6324 44.5 26.0553 44.5 25.3434V16.3779C44.5 16.0433 44.3699 15.7219 44.1372 15.4814ZM40.1694 15.0889H31.0545V10.0264H35.2698L40.1694 15.0889ZM7.14804 13.4906H13.8574C14.5693 13.4906 15.1465 12.9134 15.1465 12.2015C15.1465 11.4896 14.5693 10.9125 13.8574 10.9125H7.14804V8.33315H14.803C15.5149 8.33315 16.0921 7.75599 16.0921 7.04409C16.0921 6.33218 15.5149 5.75502 14.803 5.75502H7.14804V3.1757H14.803H28.5124L28.4763 24.0541H18.9253C18.7298 23.0493 18.2439 22.0904 17.4672 21.3137C16.4616 20.3079 15.1245 19.7542 13.7023 19.7542C12.2801 19.7542 10.9431 20.3079 9.9374 21.3137C9.18115 22.0699 8.68056 23.0136 8.4787 24.04H7.14804V13.4906ZM15.6442 27.0209C15.1255 27.5396 14.4358 27.8252 13.7023 27.8252C12.9688 27.8252 12.2791 27.5396 11.7604 27.0209C11.2417 26.5021 10.956 25.8124 10.956 25.0788C10.956 24.3452 11.2417 23.6555 11.7604 23.1367C12.2791 22.618 12.9688 22.3324 13.7023 22.3324C14.4358 22.3324 15.1255 22.618 15.6442 23.1367C16.715 24.2076 16.715 25.95 15.6442 27.0209ZM38.1364 27.0209C37.6177 27.5396 36.928 27.8252 36.1945 27.8252C35.461 27.8252 34.7713 27.5396 34.2526 27.0209C33.1818 25.95 33.1818 24.2077 34.2526 23.1368C34.7713 22.6181 35.461 22.3325 36.1945 22.3325C36.928 22.3325 37.6177 22.6181 38.1364 23.1368C38.6551 23.6556 38.9407 24.3453 38.9407 25.0789C38.9408 25.8124 38.6551 26.5021 38.1364 27.0209ZM41.4176 24.0542C41.2221 23.0494 40.7361 22.0905 39.9594 21.3138C38.9538 20.308 37.6167 19.7542 36.1945 19.7542C34.7723 19.7542 33.4353 20.308 32.4296 21.3138C31.7448 21.9986 31.2874 22.8253 31.0544 23.7V17.667H41.9219V24.0542H41.4176Z" fill="#EB1C22"/>
</svg>
