<svg width="45" height="45" viewBox="0 0 45 45" fill="none" xmlns="http://www.w3.org/2000/svg">
<path d="M43.2109 3.67566H37.5646C37.5851 3.05026 37.5965 2.42117 37.5965 1.78906C37.5965 1.07706 37.0191 0.5 36.3074 0.5H8.6926C7.98093 0.5 7.40353 1.07706 7.40353 1.78906C7.40353 2.42117 7.41495 3.05026 7.43542 3.67566H1.78906C1.07706 3.67566 0.5 4.25272 0.5 4.96472C0.5 10.7407 2.00961 16.19 4.75055 20.3093C7.45993 24.3816 11.069 26.7173 14.9677 26.9446C15.8516 27.9063 16.7858 28.6905 17.759 29.2887V35.018H15.5965C12.9821 35.018 10.8555 37.145 10.8555 39.759V41.9215H10.7638C10.0518 41.9215 9.47476 42.4989 9.47476 43.2106C9.47476 43.9226 10.0518 44.4997 10.7638 44.4997H34.2362C34.9482 44.4997 35.5252 43.9226 35.5252 43.2106C35.5252 42.4989 34.9482 41.9215 34.2362 41.9215H34.1445V39.759C34.1445 37.145 32.0179 35.018 29.4035 35.018H27.241V29.2887C28.2142 28.6909 29.1487 27.9063 30.0326 26.9446C33.931 26.7173 37.5401 24.3816 40.2498 20.3093C42.9907 16.19 44.5 10.7407 44.5 4.96472C44.5 4.25272 43.9229 3.67566 43.2109 3.67566ZM6.89697 18.8812C4.63608 15.4837 3.30774 11.0398 3.10532 6.25378H7.57944C8.04437 12.1371 9.42542 17.5754 11.5839 21.8921C11.9277 22.5796 12.2872 23.2291 12.6602 23.8408C10.5161 23.0311 8.5318 21.3385 6.89697 18.8812ZM31.5664 39.759V41.9219H13.4336V39.759C13.4336 38.5666 14.4037 37.5961 15.5965 37.5961H29.4035C30.5963 37.5961 31.5664 38.5666 31.5664 39.759ZM24.6629 35.018H20.3371V30.4089C21.0458 30.5956 21.7679 30.6926 22.5 30.6926C23.2321 30.6926 23.9542 30.5956 24.6629 30.4089V35.018ZM25.4612 27.342C25.4031 27.3659 25.3474 27.3947 25.294 27.4266C24.3829 27.8798 23.4467 28.1145 22.5 28.1145C21.5537 28.1145 20.6178 27.8798 19.707 27.4273C19.653 27.3947 19.5969 27.3659 19.5382 27.3414C18.5274 26.8069 17.5495 25.9999 16.6247 24.9395C16.576 24.87 16.5213 24.8059 16.4605 24.7475C15.5424 23.6575 14.6787 22.3167 13.8898 20.739C11.5208 16.0013 10.1525 9.77185 9.99677 3.07812H35.0032C34.8471 9.77185 33.4789 16.0016 31.1102 20.739C30.3213 22.3167 29.4576 23.6575 28.5398 24.7475C28.4787 24.8059 28.4233 24.8703 28.375 24.9398C27.4501 26.0006 26.4719 26.8073 25.4612 27.342ZM38.103 18.8812C36.4682 21.3385 34.4839 23.0311 32.3398 23.8408C32.7128 23.2291 33.0723 22.5796 33.4161 21.8921C35.5746 17.5754 36.9553 12.1371 37.4206 6.25378H41.8947C41.6923 11.0398 40.3639 15.4837 38.103 18.8812Z" fill="#EB1C22"/>
</svg>
