<svg width="41" height="45" viewBox="0 0 41 45" fill="none" xmlns="http://www.w3.org/2000/svg">
<path d="M23.4303 27.84C26.3026 27.84 28.6383 25.5042 28.6383 22.6319C28.6383 19.7596 26.3026 17.4238 23.4303 17.4238C20.5579 17.4238 18.2222 19.7596 18.2222 22.6319C18.2222 25.5042 20.5578 27.84 23.4303 27.84ZM23.4303 19.4973C25.1622 19.4973 26.5649 20.906 26.5649 22.6319C26.5649 24.3639 25.1562 25.7665 23.4303 25.7665C21.6983 25.7665 20.2957 24.3578 20.2957 22.6319C20.2957 20.906 21.7044 19.4973 23.4303 19.4973Z" fill="#EB1C22"/>
<path d="M26.827 29.4121H20.0212C16.2219 29.4121 13.13 32.4979 13.13 36.285V42.6639C13.13 43.6945 13.935 44.4995 14.9656 44.4995H31.8643C32.8949 44.4995 33.6999 43.6945 33.6999 42.6639V36.291C33.7061 32.4979 30.6202 29.4121 26.827 29.4121ZM31.6264 42.4322H29.7176V36.3155C29.7176 35.8459 29.3333 35.4617 28.8638 35.4617C28.3943 35.4617 28.01 35.8459 28.01 36.3155V42.4322H18.7953V36.3155C18.7953 35.8459 18.4111 35.4617 17.9416 35.4617C17.472 35.4617 17.0878 35.8459 17.0878 36.3155V42.4322H15.2094V36.2912C15.2094 33.6444 17.3683 31.4856 20.0211 31.4856H26.8269C29.4736 31.4856 31.6263 33.6384 31.6263 36.285V42.4322H31.6264Z" fill="#EB1C22"/>
<path d="M29.9432 10.9161C32.8155 10.9161 35.1512 8.58039 35.1512 5.70806C35.1512 2.83574 32.8155 0.5 29.9432 0.5C27.0708 0.5 24.7351 2.83574 24.7351 5.70806C24.7351 8.58039 27.0708 10.9161 29.9432 10.9161ZM29.9432 2.57346C31.6751 2.57346 33.0778 3.98217 33.0778 5.70806C33.0778 7.43396 31.6691 8.84267 29.9432 8.84267C28.2112 8.84267 26.8086 7.43396 26.8086 5.70806C26.8086 3.98217 28.2112 2.57346 29.9432 2.57346Z" fill="#EB1C22"/>
<path d="M38.1945 14.501C36.8955 13.202 35.1697 12.4824 33.3341 12.4824H26.4185C24.2475 12.4824 22.1862 13.5313 20.8994 15.2877C20.558 15.7511 20.6616 16.3976 21.119 16.7392C21.3019 16.8733 21.5214 16.9405 21.7288 16.9405C22.0459 16.9405 22.3631 16.7941 22.5642 16.5196C23.4607 15.2939 24.9 14.5621 26.4123 14.5621H33.3401C34.6207 14.5621 35.8221 15.0621 36.7308 15.9708C37.6395 16.8795 38.1395 18.0869 38.1395 19.3615V25.5087H36.2306V19.392C36.2306 18.9224 35.8464 18.5382 35.3769 18.5382C34.9073 18.5382 34.5231 18.9224 34.5231 19.392V25.5087H29.1748C28.6015 25.5087 28.1381 25.9722 28.1381 26.5454C28.1381 27.1187 28.6015 27.5822 29.1748 27.5822H38.3713C39.4019 27.5822 40.2069 26.7772 40.2069 25.7466V19.3616C40.2129 19.3616 40.2129 19.3616 40.2129 19.3616C40.2131 17.5258 39.4996 15.8 38.1945 14.501Z" fill="#EB1C22"/>
<path d="M11.0807 17.8692C13.9531 17.8692 16.2888 15.5335 16.2888 12.6612C16.2888 9.78886 13.9531 7.45312 11.0807 7.45312C8.20842 7.45312 5.87268 9.78886 5.87268 12.6612C5.87268 15.5335 8.2083 17.8692 11.0807 17.8692ZM11.0807 9.52051C12.8127 9.52051 14.2153 10.9292 14.2153 12.6551C14.2153 14.3871 12.8066 15.7897 11.0807 15.7897C9.34877 15.7897 7.94614 14.381 7.94614 12.6551C7.94614 10.9292 9.35485 9.52051 11.0807 9.52051Z" fill="#EB1C22"/>
<path d="M11.7395 32.4615H6.47041V26.3387C6.47041 25.8692 6.08617 25.4849 5.61664 25.4849C5.14711 25.4849 4.76286 25.8692 4.76286 26.3387V32.4615H2.85413V26.3143C2.85413 23.6675 5.01299 21.5149 7.67187 21.5149L14.5204 21.5209C15.1363 21.5209 15.7096 21.6308 16.2829 21.8624C16.4109 21.9113 16.539 21.9356 16.6732 21.9356C17.0818 21.9356 17.4721 21.6916 17.6368 21.2892C17.8503 20.7586 17.5942 20.1549 17.0635 19.9414C16.2403 19.6121 15.4109 19.4475 14.5266 19.4475L7.67806 19.4414C3.87871 19.4414 0.786865 22.5272 0.786865 26.3143V32.6932C0.786865 33.7238 1.59181 34.5288 2.62246 34.5288H11.7396C12.3129 34.5288 12.7763 34.0653 12.7763 33.4921C12.7762 32.925 12.3127 32.4615 11.7395 32.4615Z" fill="#EB1C22"/>
</svg>
